<svg id="visual" viewBox="0 0 1920 1080" width="1920" height="1080" xmlns="http://www.w3.org/2000/svg" xmlns:xlink="http://www.w3.org/1999/xlink" version="1.1"><rect x="0" y="0" width="1920" height="1080" fill="#FFFFFF"></rect><path d="M0 351L45.7 351.3C91.3 351.7 182.7 352.3 274.2 346.2C365.7 340 457.3 327 548.8 313C640.3 299 731.7 284 823 289.2C914.3 294.3 1005.7 319.7 1097 327.3C1188.3 335 1279.7 325 1371.2 315.8C1462.7 306.7 1554.3 298.3 1645.8 302.3C1737.3 306.3 1828.7 322.7 1874.3 330.8L1920 339L1920 0L1874.3 0C1828.7 0 1737.3 0 1645.8 0C1554.3 0 1462.7 0 1371.2 0C1279.7 0 1188.3 0 1097 0C1005.7 0 914.3 0 823 0C731.7 0 640.3 0 548.8 0C457.3 0 365.7 0 274.2 0C182.7 0 91.3 0 45.7 0L0 0Z" fill="#333440"></path><path d="M0 239L45.7 241.3C91.3 243.7 182.7 248.3 274.2 240.8C365.7 233.3 457.3 213.7 548.8 207.3C640.3 201 731.7 208 823 211.7C914.3 215.3 1005.7 215.7 1097 215.3C1188.3 215 1279.7 214 1371.2 219.8C1462.7 225.7 1554.3 238.3 1645.8 238.8C1737.3 239.3 1828.7 227.7 1874.3 221.8L1920 216L1920 0L1874.3 0C1828.7 0 1737.3 0 1645.8 0C1554.3 0 1462.7 0 1371.2 0C1279.7 0 1188.3 0 1097 0C1005.7 0 914.3 0 823 0C731.7 0 640.3 0 548.8 0C457.3 0 365.7 0 274.2 0C182.7 0 91.3 0 45.7 0L0 0Z" fill="#2a2c3a"></path><path d="M0 245L45.7 244.8C91.3 244.7 182.7 244.3 274.2 238.7C365.7 233 457.3 222 548.8 218.7C640.3 215.3 731.7 219.7 823 225.8C914.3 232 1005.7 240 1097 230.3C1188.3 220.7 1279.7 193.3 1371.2 185C1462.7 176.7 1554.3 187.3 1645.8 188.2C1737.3 189 1828.7 180 1874.3 175.5L1920 171L1920 0L1874.3 0C1828.7 0 1737.3 0 1645.8 0C1554.3 0 1462.7 0 1371.2 0C1279.7 0 1188.3 0 1097 0C1005.7 0 914.3 0 823 0C731.7 0 640.3 0 548.8 0C457.3 0 365.7 0 274.2 0C182.7 0 91.3 0 45.7 0L0 0Z" fill="#212434"></path><path d="M0 186L45.7 184.7C91.3 183.3 182.7 180.7 274.2 175.2C365.7 169.7 457.3 161.3 548.8 159.2C640.3 157 731.7 161 823 155.8C914.3 150.7 1005.7 136.3 1097 135.2C1188.3 134 1279.7 146 1371.2 143.5C1462.7 141 1554.3 124 1645.8 127.7C1737.3 131.3 1828.7 155.7 1874.3 167.8L1920 180L1920 0L1874.3 0C1828.7 0 1737.3 0 1645.8 0C1554.3 0 1462.7 0 1371.2 0C1279.7 0 1188.3 0 1097 0C1005.7 0 914.3 0 823 0C731.7 0 640.3 0 548.8 0C457.3 0 365.7 0 274.2 0C182.7 0 91.3 0 45.7 0L0 0Z" fill="#191c2e"></path><path d="M0 79L45.7 87C91.3 95 182.7 111 274.2 122C365.7 133 457.3 139 548.8 141.5C640.3 144 731.7 143 823 142.5C914.3 142 1005.7 142 1097 141.8C1188.3 141.7 1279.7 141.3 1371.2 130.2C1462.7 119 1554.3 97 1645.8 90C1737.3 83 1828.7 91 1874.3 95L1920 99L1920 0L1874.3 0C1828.7 0 1737.3 0 1645.8 0C1554.3 0 1462.7 0 1371.2 0C1279.7 0 1188.3 0 1097 0C1005.7 0 914.3 0 823 0C731.7 0 640.3 0 548.8 0C457.3 0 365.7 0 274.2 0C182.7 0 91.3 0 45.7 0L0 0Z" fill="#101428"></path><path d="M0 76L45.7 72.3C91.3 68.7 182.7 61.3 274.2 61.7C365.7 62 457.3 70 548.8 72.3C640.3 74.7 731.7 71.3 823 65C914.3 58.7 1005.7 49.3 1097 46.5C1188.3 43.7 1279.7 47.3 1371.2 50.3C1462.7 53.3 1554.3 55.7 1645.8 59.7C1737.3 63.7 1828.7 69.3 1874.3 72.2L1920 75L1920 0L1874.3 0C1828.7 0 1737.3 0 1645.8 0C1554.3 0 1462.7 0 1371.2 0C1279.7 0 1188.3 0 1097 0C1005.7 0 914.3 0 823 0C731.7 0 640.3 0 548.8 0C457.3 0 365.7 0 274.2 0C182.7 0 91.3 0 45.7 0L0 0Z" fill="#070922"></path></svg>