<svg id="visual" viewBox="0 0 1920 135" width="1920" height="135" xmlns="http://www.w3.org/2000/svg" xmlns:xlink="http://www.w3.org/1999/xlink" version="1.1"><path d="M0 6L40 5.8C80 5.7 160 5.3 240 5.7C320 6 400 7 480 8.3C560 9.7 640 11.3 720 12.5C800 13.7 880 14.3 960 14.2C1040 14 1120 13 1200 13.3C1280 13.7 1360 15.3 1440 15.3C1520 15.3 1600 13.7 1680 12.2C1760 10.7 1840 9.3 1880 8.7L1920 8L1920 0L1880 0C1840 0 1760 0 1680 0C1600 0 1520 0 1440 0C1360 0 1280 0 1200 0C1120 0 1040 0 960 0C880 0 800 0 720 0C640 0 560 0 480 0C400 0 320 0 240 0C160 0 80 0 40 0L0 0Z" fill="#f6d76b"></path><path d="M0 13L40 16.2C80 19.3 160 25.7 240 30.2C320 34.7 400 37.3 480 37.8C560 38.3 640 36.7 720 35.5C800 34.3 880 33.7 960 31.7C1040 29.7 1120 26.3 1200 26.8C1280 27.3 1360 31.7 1440 31C1520 30.3 1600 24.7 1680 23.3C1760 22 1840 25 1880 26.5L1920 28L1920 6L1880 6.7C1840 7.3 1760 8.7 1680 10.2C1600 11.7 1520 13.3 1440 13.3C1360 13.3 1280 11.7 1200 11.3C1120 11 1040 12 960 12.2C880 12.3 800 11.7 720 10.5C640 9.3 560 7.7 480 6.3C400 5 320 4 240 3.7C160 3.3 80 3.7 40 3.8L0 4Z" fill="#f4d154"></path><path d="M0 27L40 29.2C80 31.3 160 35.7 240 40.2C320 44.7 400 49.3 480 50.7C560 52 640 50 720 47.7C800 45.3 880 42.7 960 39.8C1040 37 1120 34 1200 34.7C1280 35.3 1360 39.7 1440 40C1520 40.3 1600 36.7 1680 35.5C1760 34.3 1840 35.7 1880 36.3L1920 37L1920 26L1880 24.5C1840 23 1760 20 1680 21.3C1600 22.7 1520 28.3 1440 29C1360 29.7 1280 25.3 1200 24.8C1120 24.3 1040 27.7 960 29.7C880 31.7 800 32.3 720 33.5C640 34.7 560 36.3 480 35.8C400 35.3 320 32.7 240 28.2C160 23.7 80 17.3 40 14.2L0 11Z" fill="#f3ca39"></path><path d="M0 58L40 58.3C80 58.7 160 59.3 240 64.8C320 70.3 400 80.7 480 85C560 89.3 640 87.7 720 83.7C800 79.7 880 73.3 960 72.7C1040 72 1120 77 1200 81C1280 85 1360 88 1440 82.7C1520 77.3 1600 63.7 1680 61.5C1760 59.3 1840 68.7 1880 73.3L1920 78L1920 35L1880 34.3C1840 33.7 1760 32.3 1680 33.5C1600 34.7 1520 38.3 1440 38C1360 37.7 1280 33.3 1200 32.7C1120 32 1040 35 960 37.8C880 40.7 800 43.3 720 45.7C640 48 560 50 480 48.7C400 47.3 320 42.7 240 38.2C160 33.7 80 29.3 40 27.2L0 25Z" fill="#f1c40f"></path><path d="M0 100L40 102.3C80 104.7 160 109.3 240 110.7C320 112 400 110 480 109C560 108 640 108 720 109.3C800 110.7 880 113.3 960 113.7C1040 114 1120 112 1200 110.2C1280 108.3 1360 106.7 1440 106C1520 105.3 1600 105.7 1680 106.3C1760 107 1840 108 1880 108.5L1920 109L1920 76L1880 71.3C1840 66.7 1760 57.3 1680 59.5C1600 61.7 1520 75.3 1440 80.7C1360 86 1280 83 1200 79C1120 75 1040 70 960 70.7C880 71.3 800 77.7 720 81.7C640 85.7 560 87.3 480 83C400 78.7 320 68.3 240 62.8C160 57.3 80 56.7 40 56.3L0 56Z" fill="#dab20f"></path><path d="M0 123L40 122.7C80 122.3 160 121.7 240 120.8C320 120 400 119 480 119C560 119 640 120 720 121C800 122 880 123 960 123C1040 123 1120 122 1200 123.2C1280 124.3 1360 127.7 1440 129C1520 130.3 1600 129.7 1680 129C1760 128.3 1840 127.7 1880 127.3L1920 127L1920 107L1880 106.5C1840 106 1760 105 1680 104.3C1600 103.7 1520 103.3 1440 104C1360 104.7 1280 106.3 1200 108.2C1120 110 1040 112 960 111.7C880 111.3 800 108.7 720 107.3C640 106 560 106 480 107C400 108 320 110 240 108.7C160 107.3 80 102.7 40 100.3L0 98Z" fill="#c4a10f"></path><path d="M0 136L40 136C80 136 160 136 240 136C320 136 400 136 480 136C560 136 640 136 720 136C800 136 880 136 960 136C1040 136 1120 136 1200 136C1280 136 1360 136 1440 136C1520 136 1600 136 1680 136C1760 136 1840 136 1880 136L1920 136L1920 125L1880 125.3C1840 125.7 1760 126.3 1680 127C1600 127.7 1520 128.3 1440 127C1360 125.7 1280 122.3 1200 121.2C1120 120 1040 121 960 121C880 121 800 120 720 119C640 118 560 117 480 117C400 117 320 118 240 118.8C160 119.7 80 120.3 40 120.7L0 121Z" fill="#af900e"></path></svg>